# xmcd
#
# Track frame offsets: 
#        150
#        16773
#        30395
#        51842
#        71392
#        87080
#        96504
#        123228
#        144042
#        160657
#        171802
#        183302
#        203064
#        221579
#        249647
#        269237
#        300502
#        316837
#        332317
#
# Disc length: 4740 seconds
#
# Revision: 0
# Processed by: cddbd v1.5.1PL0 Copyright (c) Steve Scherf et al.
# Submitted via: ExactAudioCopy v0.95a5
#
DISCID=f7128213
DTITLE=Leonard Cohen - Dear Hearher and Bonus
DYEAR=1900
DGENRE=Blues
TTITLE0=Go No More A-Roving
TTITLE1=Because Of
TTITLE2=The Latters
TTITLE3=Undertow
TTITLE4=Morning Glory
TTITLE5=On That Day
TTITLE6=Villanelle For Our Time
TTITLE7=There For You
TTITLE8=Dear Heather
TTITLE9=Nightingale
TTITLE10=To A Teacher
TTITLE11=The Faith
TTITLE12=Tennessee Waltz
TTITLE13=Dance Me To The End Of Love
TTITLE14=Susanne
TTITLE15=Hallejujah
TTITLE16=Sisters Of Marcy
TTITLE17=The Partisan
TTITLE18=Famous Blue Raincoat
EXTD=
EXTT0=
EXTT1=
EXTT2=
EXTT3=
EXTT4=
EXTT5=
EXTT6=
EXTT7=
EXTT8=
EXTT9=
EXTT10=
EXTT11=
EXTT12=
EXTT13=
EXTT14=
EXTT15=
EXTT16=
EXTT17=
EXTT18=
PLAYORDER=
